Monda FF-Bold.ufo
<glyph name="exclam" format="1">
  <advance width="752"/>
  <unicode hex="0021"/>
  <outline>
    <contour>
      <point x="244" y="0" type="line"/>
      <point x="494" y="0" type="line"/>
      <point x="494" y="245" type="line"/>
      <point x="244" y="245" type="line"/>
    </contour>
    <contour>
      <point x="332" y="410" type="curve"/>
      <point x="408" y="410" type="line"/>
      <point x="408" y="410"/>
      <point x="508" y="1359"/>
      <point x="508" y="1477" type="curve"/>
      <point x="249" y="1477" type="line"/>
      <point x="249" y="1359"/>
      <point x="332" y="410"/>
    </contour>
  </outline>
</glyph>
<glyph name="quotesingle" format="1">
  <advance width="646"/>
  <unicode hex="0027"/>
  <outline>
    <contour>
      <point x="190" y="872" type="line"/>
      <point x="352" y="872" type="line"/>
      <point x="401" y="1516" type="line"/>
      <point x="144" y="1516" type="line"/>
    </contour>
  </outline>
</glyph>
<glyph name="parenleft" format="1">
  <advance width="946"/>
  <unicode hex="0028"/>
  <outline>
    <contour>
      <point x="765" y="-159" type="curve"/>
      <point x="765" y="56" type="line"/>
      <point x="557" y="56"/>
      <point x="470" y="121"/>
      <point x="470" y="390" type="curve" smooth="yes"/>
      <point x="470" y="1020" type="line" smooth="yes"/>
      <point x="470" y="1291"/>
      <point x="559" y="1359"/>
      <point x="765" y="1359" type="curve"/>
      <point x="765" y="1575" type="line"/>
      <point x="327" y="1576"/>
      <point x="191" y="1342"/>
      <point x="191" y="986" type="curve" smooth="yes"/>
      <point x="191" y="420" type="line" smooth="yes"/>
      <point x="191" y="67"/>
      <point x="328" y="-160"/>
    </contour>
  </outline>
</glyph>
<glyph name="comma" format="1">
  <advance width="598"/>
  <unicode hex="002C"/>
  <outline>
    <contour>
      <point x="274" y="-389" type="line"/>
      <point x="336" y="-333"/>
      <point x="470" y="-148"/>
      <point x="470" y="53" type="curve" smooth="yes"/>
      <point x="470" y="276" type="line"/>
      <point x="148" y="276" type="line"/>
      <point x="148" y="0" type="line"/>
      <point x="313" y="0" type="line"/>
      <point x="313" y="-138"/>
      <point x="218" y="-285"/>
      <point x="167" y="-343" type="curve"/>
    </contour>
  </outline>
</glyph>
<glyph name="period" format="1">
  <advance width="650"/>
  <unicode hex="002E"/>
  <outline>
    <contour>
      <point x="176" y="0" type="line"/>
      <point x="474" y="0" type="line"/>
      <point x="474" y="284" type="line"/>
      <point x="176" y="284" type="line"/>
    </contour>
  </outline>
</glyph>
<glyph name="zero" format="1">
  <advance width="1448"/>
  <unicode hex="0030"/>
  <outline>
    <contour>
      <point x="733" y="198" type="curve" smooth="yes"/>
      <point x="522" y="198"/>
      <point x="454" y="364"/>
      <point x="454" y="493" type="curve" smooth="yes"/>
      <point x="454" y="979" type="line" smooth="yes"/>
      <point x="454" y="1109"/>
      <point x="513" y="1277"/>
      <point x="733" y="1277" type="curve" smooth="yes"/>
      <point x="951" y="1277"/>
      <point x="1006" y="1109"/>
      <point x="1006" y="979" type="curve" smooth="yes"/>
      <point x="1006" y="493" type="line" smooth="yes"/>
      <point x="1006" y="364"/>
      <point x="945" y="198"/>
    </contour>
    <contour>
      <point x="733" y="-27" type="curve" smooth="yes"/>
      <point x="1125" y="-27"/>
      <point x="1294" y="238"/>
      <point x="1294" y="502" type="curve" smooth="yes"/>
      <point x="1294" y="967" type="line" smooth="yes"/>
      <point x="1294" y="1239"/>
      <point x="1133" y="1503"/>
      <point x="733" y="1503" type="curve" smooth="yes"/>
      <point x="326" y="1503"/>
      <point x="154" y="1243"/>
      <point x="154" y="971" type="curve" smooth="yes"/>
      <point x="154" y="498" type="line" smooth="yes"/>
      <point x="154" y="231"/>
      <point x="332" y="-27"/>
    </contour>
  </outline>
</glyph>
<glyph name="two" format="1">
  <advance width="1448"/>
  <unicode hex="0032"/>
  <unicode hex="00B2"/>
  <outline>
    <contour>
      <point x="253" y="0" type="line"/>
      <point x="1236" y="0" type="line"/>
      <point x="1236" y="237" type="line"/>
      <point x="630" y="237" type="line"/>
      <point x="948" y="562" type="line"/>
      <point x="1119" y="718"/>
      <point x="1233" y="876"/>
      <point x="1233" y="1093" type="curve" smooth="yes"/>
      <point x="1233" y="1336"/>
      <point x="1111" y="1503"/>
      <point x="732" y="1503" type="curve" smooth="yes"/>
      <point x="333" y="1503"/>
      <point x="210" y="1344"/>
      <point x="210" y="992" type="curve"/>
      <point x="515" y="992" type="line"/>
      <point x="515" y="1207"/>
      <point x="546" y="1279"/>
      <point x="736" y="1279" type="curve" smooth="yes"/>
      <point x="911" y="1279"/>
      <point x="924" y="1217"/>
      <point x="923" y="1080" type="curve" smooth="yes"/>
      <point x="923" y="953"/>
      <point x="868" y="872"/>
      <point x="748" y="748" type="curve" smooth="yes"/>
      <point x="247" y="226" type="line"/>
    </contour>
  </outline>
</glyph>
<glyph name="three" format="1">
  <advance width="1448"/>
  <unicode hex="0033"/>
  <outline>
    <contour>
      <point x="772" y="-27" type="curve" smooth="yes"/>
      <point x="1159" y="-27"/>
      <point x="1268" y="157"/>
      <point x="1268" y="426" type="curve" smooth="yes"/>
      <point x="1268" y="593"/>
      <point x="1217" y="732"/>
      <point x="1038" y="780" type="curve"/>
      <point x="1227" y="820"/>
      <point x="1255" y="962"/>
      <point x="1255" y="1101" type="curve" smooth="yes"/>
      <point x="1255" y="1357"/>
      <point x="1082" y="1503"/>
      <point x="766" y="1503" type="curve" smooth="yes"/>
      <point x="446" y="1503"/>
      <point x="264" y="1387"/>
      <point x="262" y="1013" type="curve"/>
      <point x="521" y="1013" type="line"/>
      <point x="520" y="1228"/>
      <point x="569" y="1279"/>
      <point x="769" y="1279" type="curve" smooth="yes"/>
      <point x="942" y="1279"/>
      <point x="996" y="1210"/>
      <point x="996" y="1087" type="curve" smooth="yes"/>
      <point x="996" y="942"/>
      <point x="988" y="877"/>
      <point x="700" y="877" type="curve"/>
      <point x="700" y="678" type="line"/>
      <point x="958" y="678"/>
      <point x="1004" y="621"/>
      <point x="1004" y="439" type="curve" smooth="yes"/>
      <point x="1004" y="281"/>
      <point x="954" y="198"/>
      <point x="775" y="198" type="curve" smooth="yes"/>
      <point x="583" y="198"/>
      <point x="518" y="251"/>
      <point x="515" y="476" type="curve"/>
      <point x="256" y="476" type="line"/>
      <point x="264" y="146"/>
      <point x="395" y="-27"/>
    </contour>
  </outline>
</glyph>
<glyph name="four" format="1">
  <advance width="1448"/>
  <unicode hex="0034"/>
  <outline>
    <contour>
      <point x="860" y="0" type="line"/>
      <point x="1083" y="0" type="line"/>
      <point x="1083" y="321" type="line"/>
      <point x="1318" y="321" type="line"/>
      <point x="1318" y="557" type="line"/>
      <point x="1083" y="557" type="line"/>
      <point x="1083" y="862" type="line"/>
      <point x="860" y="862" type="line"/>
      <point x="860" y="557" type="line"/>
      <point x="482" y="557" type="line"/>
      <point x="942" y="1475" type="line"/>
      <point x="635" y="1477" type="line"/>
      <point x="158" y="552" type="line"/>
      <point x="158" y="321" type="line"/>
      <point x="860" y="321" type="line"/>
    </contour>
  </outline>
</glyph>
<glyph name="five" format="1">
  <advance width="1448"/>
  <unicode hex="0035"/>
  <outline>
    <contour>
      <point x="743" y="-27" type="curve" smooth="yes"/>
      <point x="1086" y="-27"/>
      <point x="1264" y="202"/>
      <point x="1264" y="477" type="curve" smooth="yes"/>
      <point x="1264" y="726"/>
      <point x="1135" y="960"/>
      <point x="817" y="960" type="curve" smooth="yes"/>
      <point x="718" y="960"/>
      <point x="590" y="928"/>
      <point x="525" y="860" type="curve"/>
      <point x="578" y="1230" type="line"/>
      <point x="1167" y="1230" type="line"/>
      <point x="1167" y="1476" type="line"/>
      <point x="375" y="1476" type="line"/>
      <point x="294" y="704" type="line"/>
      <point x="508" y="637" type="line"/>
      <point x="558" y="694"/>
      <point x="644" y="751"/>
      <point x="750" y="751" type="curve" smooth="yes"/>
      <point x="944" y="751"/>
      <point x="1009" y="621"/>
      <point x="1011" y="480" type="curve"/>
      <point x="1012" y="299"/>
      <point x="905" y="194"/>
      <point x="727" y="194" type="curve" smooth="yes"/>
      <point x="588" y="194"/>
      <point x="465" y="238"/>
      <point x="325" y="322" type="curve"/>
      <point x="252" y="119" type="line"/>
      <point x="337" y="57"/>
      <point x="516" y="-27"/>
    </contour>
  </outline>
</glyph>
<glyph name="eight" format="1">
  <advance width="1448"/>
  <unicode hex="0038"/>
  <outline>
    <contour>
      <point x="720" y="-26" type="curve" smooth="yes"/>
      <point x="1073" y="-26"/>
      <point x="1274" y="113"/>
      <point x="1274" y="368" type="curve" smooth="yes"/>
      <point x="1274" y="545"/>
      <point x="1173" y="697"/>
      <point x="937" y="783" type="curve"/>
      <point x="1143" y="848"/>
      <point x="1237" y="989"/>
      <point x="1237" y="1135" type="curve" smooth="yes"/>
      <point x="1237" y="1340"/>
      <point x="1094" y="1503"/>
      <point x="722" y="1503" type="curve" smooth="yes"/>
      <point x="353" y="1503"/>
      <point x="201" y="1342"/>
      <point x="201" y="1141" type="curve" smooth="yes"/>
      <point x="201" y="982"/>
      <point x="292" y="854"/>
      <point x="490" y="783" type="curve"/>
      <point x="294" y="697"/>
      <point x="174" y="565"/>
      <point x="174" y="366" type="curve" smooth="yes"/>
      <point x="174" y="120"/>
      <point x="378" y="-26"/>
    </contour>
    <contour>
      <point x="722" y="187" type="curve" smooth="yes"/>
      <point x="515" y="187"/>
      <point x="450" y="276"/>
      <point x="450" y="385" type="curve" smooth="yes"/>
      <point x="450" y="496"/>
      <point x="537" y="586"/>
      <point x="721" y="672" type="curve"/>
      <point x="906" y="586"/>
      <point x="992" y="496"/>
      <point x="992" y="385" type="curve" smooth="yes"/>
      <point x="992" y="277"/>
      <point x="928" y="187"/>
    </contour>
    <contour>
      <point x="721" y="876" type="curve"/>
      <point x="552" y="957"/>
      <point x="484" y="1017"/>
      <point x="484" y="1126" type="curve" smooth="yes"/>
      <point x="484" y="1224"/>
      <point x="538" y="1296"/>
      <point x="722" y="1296" type="curve" smooth="yes"/>
      <point x="907" y="1296"/>
      <point x="957" y="1220"/>
      <point x="957" y="1126" type="curve" smooth="yes"/>
      <point x="957" y="1022"/>
      <point x="883" y="957"/>
    </contour>
  </outline>
</glyph>
<glyph name="colon" format="1">
  <advance width="596"/>
  <unicode hex="003A"/>
  <outline>
    <contour>
      <point x="168" y="117" type="line"/>
      <point x="428" y="117" type="line"/>
      <point x="428" y="376" type="line"/>
      <point x="168" y="376" type="line"/>
    </contour>
    <contour>
      <point x="168" y="761" type="line"/>
      <point x="428" y="761" type="line"/>
      <point x="428" y="1021" type="line"/>
      <point x="168" y="1021" type="line"/>
    </contour>
  </outline>
</glyph>
<glyph name="semicolon" format="1">
  <advance width="1024"/>
  <unicode hex="003B"/>
  <outline>
    <contour>
      <point x="480" y="-179" type="line"/>
      <point x="542" y="-123"/>
      <point x="676" y="62"/>
      <point x="676" y="263" type="curve" smooth="yes"/>
      <point x="676" y="486" type="line"/>
      <point x="354" y="486" type="line"/>
      <point x="354" y="210" type="line"/>
      <point x="519" y="210" type="line"/>
      <point x="519" y="72"/>
      <point x="424" y="-75"/>
      <point x="373" y="-133" type="curve"/>
    </contour>
    <contour>
      <point x="325" y="876" type="line"/>
      <point x="623" y="876" type="line"/>
      <point x="623" y="1160" type="line"/>
      <point x="325" y="1160" type="line"/>
    </contour>
  </outline>
</glyph>
<glyph name="less" format="1">
  <advance width="1024"/>
  <unicode hex="003C"/>
  <outline>
    <contour>
      <point x="856" y="31" type="line"/>
      <point x="856" y="262" type="line"/>
      <point x="293" y="556" type="line"/>
      <point x="856" y="850" type="line"/>
      <point x="856" y="1081" type="line"/>
      <point x="112" y="664" type="line"/>
      <point x="112" y="445" type="line"/>
    </contour>
  </outline>
</glyph>
<glyph name="equal" format="1">
  <advance width="820"/>
  <unicode hex="003D"/>
  <outline>
    <contour>
      <point x="112" y="291" type="line"/>
      <point x="708" y="291" type="line"/>
      <point x="708" y="464" type="line"/>
      <point x="112" y="464" type="line"/>
    </contour>
    <contour>
      <point x="112" y="581" type="line"/>
      <point x="708" y="581" type="line"/>
      <point x="708" y="754" type="line"/>
      <point x="112" y="754" type="line"/>
    </contour>
  </outline>
</glyph>
<glyph name="greater" format="1">
  <advance width="1024"/>
  <unicode hex="003E"/>
  <outline>
    <contour>
      <point x="152" y="31" type="line"/>
      <point x="896" y="446" type="line"/>
      <point x="896" y="665" type="line"/>
      <point x="152" y="1081" type="line"/>
      <point x="152" y="848" type="line"/>
      <point x="715" y="556" type="line"/>
      <point x="152" y="260" type="line"/>
    </contour>
  </outline>
</glyph>
<glyph name="question" format="1">
  <advance width="1244"/>
  <unicode hex="003F"/>
  <outline>
    <contour>
      <point x="441" y="431" type="line"/>
      <point x="670" y="431" type="line"/>
      <point x="852" y="622" type="line"/>
      <point x="1014" y="794"/>
      <point x="1140" y="905"/>
      <point x="1140" y="1110" type="curve" smooth="yes"/>
      <point x="1140" y="1332"/>
      <point x="1063" y="1501"/>
      <point x="615" y="1501" type="curve" smooth="yes"/>
      <point x="182" y="1501"/>
      <point x="96" y="1359"/>
      <point x="96" y="1056" type="curve" smooth="yes"/>
      <point x="96" y="962" type="line"/>
      <point x="400" y="962" type="line"/>
      <point x="400" y="1047" type="line" smooth="yes"/>
      <point x="400" y="1188"/>
      <point x="413" y="1279"/>
      <point x="615" y="1279" type="curve" smooth="yes"/>
      <point x="801" y="1279"/>
      <point x="822" y="1206"/>
      <point x="822" y="1096" type="curve" smooth="yes"/>
      <point x="822" y="976"/>
      <point x="777" y="906"/>
      <point x="689" y="780" type="curve"/>
    </contour>
    <contour>
      <point x="425" y="0" type="line"/>
      <point x="674" y="0" type="line"/>
      <point x="674" y="245" type="line"/>
      <point x="425" y="245" type="line"/>
    </contour>
  </outline>
</glyph>
<glyph name="A" format="1">
  <advance width="1532"/>
  <unicode hex="0041"/>
  <outline>
    <contour>
      <point x="74" y="0" type="line"/>
      <point x="386" y="0" type="line"/>
      <point x="472" y="281" type="line"/>
      <point x="1057" y="281" type="line"/>
      <point x="1140" y="0" type="line"/>
      <point x="1458" y="0" type="line"/>
      <point x="960" y="1477" type="line"/>
      <point x="566" y="1477" type="line"/>
    </contour>
    <contour>
      <point x="531" y="479" type="line"/>
      <point x="770" y="1255" type="line"/>
      <point x="1000" y="479" type="line"/>
    </contour>
  </outline>
</glyph>
<glyph name="F" format="1">
  <advance width="1191"/>
  <unicode hex="0046"/>
  <outline>
    <contour>
      <point x="212" y="0" type="line"/>
      <point x="509" y="0" type="line"/>
      <point x="509" y="634" type="line"/>
      <point x="1054" y="634" type="line"/>
      <point x="1054" y="847" type="line"/>
      <point x="509" y="847" type="line"/>
      <point x="509" y="1249" type="line"/>
      <point x="1095" y="1249" type="line"/>
      <point x="1095" y="1477" type="line"/>
      <point x="212" y="1477" type="line"/>
    </contour>
  </outline>
</glyph>
<glyph name="I" format="1">
  <advance width="1172"/>
  <unicode hex="0049"/>
  <outline>
    <contour>
      <point x="170" y="0" type="line"/>
      <point x="1002" y="0" type="line"/>
      <point x="1002" y="222" type="line"/>
      <point x="735" y="222" type="line"/>
      <point x="735" y="1255" type="line"/>
      <point x="1002" y="1255" type="line"/>
      <point x="1002" y="1477" type="line"/>
      <point x="170" y="1477" type="line"/>
      <point x="170" y="1255" type="line"/>
      <point x="438" y="1255" type="line"/>
      <point x="438" y="222" type="line"/>
      <point x="170" y="222" type="line"/>
    </contour>
  </outline>
</glyph>
<glyph name="K" format="1">
  <advance width="1478"/>
  <unicode hex="004B"/>
  <outline>
    <contour>
      <point x="212" y="0" type="line"/>
      <point x="509" y="0" type="line"/>
      <point x="509" y="541" type="line"/>
      <point x="648" y="679" type="line"/>
      <point x="1111" y="0" type="line"/>
      <point x="1446" y="0" type="line"/>
      <point x="894" y="804" type="line"/>
      <point x="1409" y="1477" type="line"/>
      <point x="1081" y="1477" type="line"/>
      <point x="1011" y="1396"/>
      <point x="577" y="843"/>
      <point x="509" y="760" type="curve"/>
      <point x="509" y="1477" type="line"/>
      <point x="212" y="1477" type="line"/>
    </contour>
  </outline>
</glyph>
<glyph name="L" format="1">
  <advance width="1210"/>
  <unicode hex="004C"/>
  <outline>
    <contour>
      <point x="212" y="0" type="line"/>
      <point x="1142" y="0" type="line"/>
      <point x="1142" y="232" type="line"/>
      <point x="509" y="232" type="line"/>
      <point x="509" y="1477" type="line"/>
      <point x="212" y="1477" type="line"/>
    </contour>
  </outline>
</glyph>
<glyph name="M" format="1">
  <advance width="1926"/>
  <unicode hex="004D"/>
  <outline>
    <contour>
      <point x="212" y="0" type="line"/>
      <point x="496" y="0" type="line"/>
      <point x="496" y="1087" type="line"/>
      <point x="864" y="429" type="line"/>
      <point x="1063" y="429" type="line"/>
      <point x="1430" y="1091" type="line"/>
      <point x="1430" y="0" type="line"/>
      <point x="1714" y="0" type="line"/>
      <point x="1714" y="1477" type="line"/>
      <point x="1357" y="1477" type="line"/>
      <point x="963" y="761" type="line"/>
      <point x="563" y="1477" type="line"/>
      <point x="212" y="1477" type="line"/>
    </contour>
  </outline>
</glyph>
<glyph name="N" format="1">
  <advance width="1682"/>
  <unicode hex="004E"/>
  <outline>
    <contour>
      <point x="212" y="0" type="line"/>
      <point x="481" y="0" type="line"/>
      <point x="481" y="996" type="line"/>
      <point x="1245" y="0" type="line"/>
      <point x="1470" y="0" type="line"/>
      <point x="1470" y="1477" type="line"/>
      <point x="1204" y="1477" type="line"/>
      <point x="1204" y="464" type="line"/>
      <point x="437" y="1477" type="line"/>
      <point x="212" y="1477" type="line"/>
    </contour>
  </outline>
</glyph>
<glyph name="Q" format="1">
  <advance width="1630"/>
  <unicode hex="0051"/>
  <outline>
    <contour>
      <point x="972" y="-454" type="line"/>
      <point x="1161" y="-346" type="line"/>
      <point x="966.024" y="-18.75" type="line"/>
      <point x="1357.37" y="24.5302"/>
      <point x="1458" y="255.752"/>
      <point x="1458" y="517" type="curve" smooth="yes"/>
      <point x="1458" y="948" type="line" smooth="yes"/>
      <point x="1458" y="1247"/>
      <point x="1336" y="1501"/>
      <point x="826" y="1501" type="curve" smooth="yes"/>
      <point x="293" y="1501"/>
      <point x="172" y="1262"/>
      <point x="172" y="963" type="curve" smooth="yes"/>
      <point x="172" y="501" type="line" smooth="yes"/>
      <point x="172" y="233.619"/>
      <point x="275.134" y="14.0318"/>
      <point x="700.221" y="-21.0952" type="curve"/>
    </contour>
    <contour>
      <point x="826" y="207" type="curve" smooth="yes"/>
      <point x="604" y="207"/>
      <point x="470" y="265"/>
      <point x="470" y="468" type="curve" smooth="yes"/>
      <point x="470" y="1003" type="line" smooth="yes"/>
      <point x="470" y="1205"/>
      <point x="606" y="1268"/>
      <point x="826" y="1268" type="curve" smooth="yes"/>
      <point x="1048" y="1268"/>
      <point x="1160" y="1201"/>
      <point x="1160" y="1003" type="curve" smooth="yes"/>
      <point x="1160" y="468" type="line" smooth="yes"/>
      <point x="1160" y="266"/>
      <point x="1050" y="207"/>
    </contour>
  </outline>
</glyph>
<glyph name="S" format="1">
  <advance width="1314"/>
  <unicode hex="0053"/>
  <outline>
    <contour>
      <point x="706" y="-26" type="curve" smooth="yes"/>
      <point x="1043" y="-26"/>
      <point x="1186" y="172"/>
      <point x="1186" y="422" type="curve" smooth="yes"/>
      <point x="1186" y="654"/>
      <point x="1086" y="777"/>
      <point x="887" y="837" type="curve" smooth="yes"/>
      <point x="637" y="912" type="line" smooth="yes"/>
      <point x="480" y="959"/>
      <point x="441" y="1008"/>
      <point x="446" y="1121" type="curve" smooth="yes"/>
      <point x="451" y="1227"/>
      <point x="541" y="1268"/>
      <point x="693" y="1268" type="curve" smooth="yes"/>
      <point x="837" y="1268"/>
      <point x="967" y="1229"/>
      <point x="1077" y="1177" type="curve"/>
      <point x="1161" y="1386" type="line"/>
      <point x="1025" y="1465"/>
      <point x="862" y="1501"/>
      <point x="667" y="1501" type="curve" smooth="yes"/>
      <point x="376" y="1501"/>
      <point x="154" y="1369"/>
      <point x="154" y="1094" type="curve" smooth="yes"/>
      <point x="154" y="905"/>
      <point x="219" y="752"/>
      <point x="460" y="681" type="curve" smooth="yes"/>
      <point x="712" y="607" type="line" smooth="yes"/>
      <point x="905" y="550"/>
      <point x="918" y="482"/>
      <point x="914" y="390" type="curve" smooth="yes"/>
      <point x="909" y="281"/>
      <point x="869" y="207"/>
      <point x="699" y="207" type="curve" smooth="yes"/>
      <point x="516" y="207"/>
      <point x="353" y="265"/>
      <point x="240" y="325" type="curve"/>
      <point x="138" y="108" type="line"/>
      <point x="286" y="25"/>
      <point x="505" y="-26"/>
    </contour>
  </outline>
</glyph>
<glyph name="T" format="1">
  <advance width="1210"/>
  <unicode hex="0054"/>
  <outline>
    <contour>
      <point x="457" y="0" type="line"/>
      <point x="753" y="0" type="line"/>
      <point x="753" y="1250" type="line"/>
      <point x="1154" y="1250" type="line"/>
      <point x="1154" y="1477" type="line"/>
      <point x="56" y="1477" type="line"/>
      <point x="56" y="1250" type="line"/>
      <point x="457" y="1250" type="line"/>
    </contour>
  </outline>
</glyph>
<glyph name="V" format="1">
  <advance width="1564"/>
  <unicode hex="0056"/>
  <outline>
    <contour>
      <point x="572" y="0" type="line"/>
      <point x="992" y="0" type="line"/>
      <point x="1516" y="1476" type="line"/>
      <point x="1198" y="1476" type="line"/>
      <point x="782" y="231" type="line"/>
      <point x="366" y="1476" type="line"/>
      <point x="48" y="1476" type="line"/>
    </contour>
  </outline>
</glyph>
<glyph name="W" format="1">
  <advance width="1986"/>
  <unicode hex="0057"/>
  <outline>
    <contour>
      <point x="443" y="0" type="line"/>
      <point x="705" y="0" type="line"/>
      <point x="989" y="1053" type="line"/>
      <point x="1299" y="0" type="line"/>
      <point x="1544" y="0" type="line"/>
      <point x="1930" y="1476" type="line"/>
      <point x="1645" y="1476" type="line"/>
      <point x="1405" y="466" type="line"/>
      <point x="1109" y="1476" type="line"/>
      <point x="858" y="1476" type="line"/>
      <point x="599" y="455" type="line"/>
      <point x="344" y="1476" type="line"/>
      <point x="56" y="1476" type="line"/>
    </contour>
  </outline>
</glyph>
<glyph name="X" format="1">
  <advance width="1368"/>
  <unicode hex="0058"/>
  <outline>
    <contour>
      <point x="46" y="0" type="line"/>
      <point x="356" y="0" type="line"/>
      <point x="677" y="501" type="line"/>
      <point x="995" y="0" type="line"/>
      <point x="1322" y="0" type="line"/>
      <point x="838" y="749" type="line"/>
      <point x="1305" y="1476" type="line"/>
      <point x="977" y="1476" type="line"/>
      <point x="677" y="997" type="line"/>
      <point x="367" y="1476" type="line"/>
      <point x="58" y="1476" type="line"/>
      <point x="521" y="748" type="line"/>
    </contour>
  </outline>
</glyph>
<glyph name="Z" format="1">
  <advance width="1209"/>
  <unicode hex="005A"/>
  <outline>
    <contour>
      <point x="137" y="0" type="line"/>
      <point x="1093" y="0" type="line"/>
      <point x="1093" y="194" type="line"/>
      <point x="458" y="194" type="line"/>
      <point x="1081" y="1297" type="line"/>
      <point x="1081" y="1476" type="line"/>
      <point x="164" y="1476" type="line"/>
      <point x="164" y="1281" type="line"/>
      <point x="758" y="1281" type="line"/>
      <point x="137" y="177" type="line"/>
    </contour>
  </outline>
</glyph>
<glyph name="asciicircum" format="1">
  <advance width="1257"/>
  <unicode hex="005E"/>
  <outline>
    <contour>
      <point x="80" y="511" type="line"/>
      <point x="317" y="511" type="line"/>
      <point x="622" y="1112" type="line"/>
      <point x="926" y="511" type="line"/>
      <point x="1153" y="511" type="line"/>
      <point x="745" y="1283" type="line"/>
      <point x="486" y="1283" type="line"/>
    </contour>
  </outline>
</glyph>
<glyph name="grave" format="1">
  <advance width="556"/>
  <unicode hex="0060"/>
  <outline>
    <contour>
      <point x="316" y="1157" type="line"/>
      <point x="467" y="1157" type="line"/>
      <point x="346" y="1514" type="line"/>
      <point x="79" y="1514" type="line"/>
    </contour>
  </outline>
</glyph>
<glyph name="b" format="1">
  <advance width="1250"/>
  <unicode hex="0062"/>
  <outline>
    <contour>
      <point x="675" y="-23" type="curve" smooth="yes"/>
      <point x="936" y="-23"/>
      <point x="1102" y="120"/>
      <point x="1102" y="329" type="curve" smooth="yes"/>
      <point x="1102" y="753" type="line" smooth="yes"/>
      <point x="1102" y="934"/>
      <point x="994" y="1097"/>
      <point x="692" y="1097" type="curve" smooth="yes"/>
      <point x="602" y="1097"/>
      <point x="517" y="1074"/>
      <point x="452" y="1040" type="curve"/>
      <point x="452" y="1516" type="line"/>
      <point x="178" y="1516" type="line"/>
      <point x="178" y="0" type="line"/>
      <point x="367" y="0" type="line"/>
      <point x="394" y="65" type="line"/>
      <point x="463" y="19"/>
      <point x="558" y="-23"/>
    </contour>
    <contour>
      <point x="630" y="168" type="curve" smooth="yes"/>
      <point x="557" y="168"/>
      <point x="493" y="185"/>
      <point x="452" y="216" type="curve"/>
      <point x="452" y="857" type="line"/>
      <point x="473" y="867"/>
      <point x="545" y="907"/>
      <point x="643" y="907" type="curve" smooth="yes"/>
      <point x="764" y="907"/>
      <point x="830" y="865"/>
      <point x="830" y="758" type="curve" smooth="yes"/>
      <point x="830" y="323" type="line" smooth="yes"/>
      <point x="830" y="215"/>
      <point x="747" y="168"/>
    </contour>
  </outline>
</glyph>
<glyph name="d" format="1">
  <advance width="1246"/>
  <unicode hex="0064"/>
  <outline>
    <contour>
      <point x="576" y="-23" type="curve" smooth="yes"/>
      <point x="686" y="-23"/>
      <point x="784" y="14"/>
      <point x="854" y="63" type="curve"/>
      <point x="883" y="0" type="line"/>
      <point x="1068" y="0" type="line"/>
      <point x="1068" y="1516" type="line"/>
      <point x="795" y="1516" type="line"/>
      <point x="795" y="1059" type="line"/>
      <point x="732" y="1082"/>
      <point x="656" y="1097"/>
      <point x="595" y="1097" type="curve" smooth="yes"/>
      <point x="282" y="1097"/>
      <point x="148" y="951"/>
      <point x="148" y="753" type="curve" smooth="yes"/>
      <point x="148" y="324" type="line" smooth="yes"/>
      <point x="148" y="108"/>
      <point x="285" y="-23"/>
    </contour>
    <contour>
      <point x="608" y="168" type="curve" smooth="yes"/>
      <point x="488" y="168"/>
      <point x="421" y="211"/>
      <point x="421" y="320" type="curve" smooth="yes"/>
      <point x="421" y="759" type="line" smooth="yes"/>
      <point x="421" y="868"/>
      <point x="494" y="907"/>
      <point x="618" y="907" type="curve" smooth="yes"/>
      <point x="694" y="907"/>
      <point x="759" y="887"/>
      <point x="795" y="870" type="curve"/>
      <point x="795" y="211" type="line"/>
      <point x="753" y="186"/>
      <point x="683" y="168"/>
    </contour>
  </outline>
</glyph>
<glyph name="j" format="1">
  <advance width="650"/>
  <unicode hex="006A"/>
  <outline>
    <contour>
      <point x="-3" y="-329" type="line"/>
      <point x="98" y="-329" type="line" smooth="yes"/>
      <point x="365" y="-329"/>
      <point x="472" y="-183"/>
      <point x="472" y="30" type="curve" smooth="yes"/>
      <point x="472" y="1074" type="line"/>
      <point x="199" y="1074" type="line"/>
      <point x="199" y="43" type="line" smooth="yes"/>
      <point x="199" y="-39"/>
      <point x="168" y="-135"/>
      <point x="28" y="-135" type="curve" smooth="yes"/>
      <point x="-16" y="-135" type="line"/>
    </contour>
    <contour>
      <point x="197" y="1227" type="line"/>
      <point x="470" y="1227" type="line"/>
      <point x="470" y="1468" type="line"/>
      <point x="197" y="1468" type="line"/>
    </contour>
  </outline>
</glyph>
<glyph name="m" format="1">
  <advance width="1944"/>
  <unicode hex="006D"/>
  <outline>
    <contour>
      <point x="178" y="0" type="line"/>
      <point x="451" y="0" type="line"/>
      <point x="451" y="758" type="line" smooth="yes"/>
      <point x="451" y="863"/>
      <point x="565" y="907"/>
      <point x="663" y="907" type="curve" smooth="yes"/>
      <point x="748" y="907"/>
      <point x="841" y="881"/>
      <point x="841" y="768" type="curve" smooth="yes"/>
      <point x="841" y="0" type="line"/>
      <point x="1115" y="0" type="line"/>
      <point x="1115" y="769" type="line"/>
      <point x="1123" y="865"/>
      <point x="1230" y="907"/>
      <point x="1327" y="907" type="curve" smooth="yes"/>
      <point x="1411" y="907"/>
      <point x="1502" y="881"/>
      <point x="1502" y="768" type="curve" smooth="yes"/>
      <point x="1502" y="0" type="line"/>
      <point x="1776" y="0" type="line"/>
      <point x="1776" y="794" type="line" smooth="yes"/>
      <point x="1776" y="975"/>
      <point x="1637" y="1097"/>
      <point x="1431" y="1097" type="curve" smooth="yes"/>
      <point x="1281" y="1097"/>
      <point x="1147" y="1033"/>
      <point x="1086" y="962" type="curve"/>
      <point x="1074" y="950" type="line"/>
      <point x="1019" y="1042"/>
      <point x="911" y="1097"/>
      <point x="773" y="1097" type="curve" smooth="yes"/>
      <point x="624" y="1097"/>
      <point x="497" y="1030"/>
      <point x="451" y="948" type="curve"/>
      <point x="451" y="1074" type="line"/>
      <point x="178" y="1074" type="line"/>
    </contour>
  </outline>
</glyph>
<glyph name="r" format="1">
  <advance width="886"/>
  <unicode hex="0072"/>
  <outline>
    <contour>
      <point x="178" y="0" type="line"/>
      <point x="451" y="0" type="line"/>
      <point x="451" y="741" type="line"/>
      <point x="472" y="827"/>
      <point x="686" y="857"/>
      <point x="824" y="864" type="curve"/>
      <point x="830" y="1090" type="line"/>
      <point x="740" y="1100"/>
      <point x="502" y="1045"/>
      <point x="451" y="946" type="curve"/>
      <point x="451" y="1074" type="line"/>
      <point x="178" y="1074" type="line"/>
    </contour>
  </outline>
</glyph>
<glyph name="u" format="1">
  <advance width="1286"/>
  <unicode hex="0075"/>
  <outline>
    <contour>
      <point x="508" y="-23" type="curve" smooth="yes"/>
      <point x="657" y="-23"/>
      <point x="792" y="46"/>
      <point x="835" y="135" type="curve"/>
      <point x="841" y="0" type="line"/>
      <point x="1108" y="0" type="line"/>
      <point x="1108" y="1074" type="line"/>
      <point x="835" y="1074" type="line"/>
      <point x="835" y="317" type="line" smooth="yes"/>
      <point x="835" y="217"/>
      <point x="721" y="166"/>
      <point x="622" y="166" type="curve" smooth="yes"/>
      <point x="538" y="166"/>
      <point x="440" y="196"/>
      <point x="440" y="308" type="curve" smooth="yes"/>
      <point x="440" y="1074" type="line"/>
      <point x="168" y="1074" type="line"/>
      <point x="168" y="280" type="line" smooth="yes"/>
      <point x="168" y="99"/>
      <point x="302" y="-23"/>
    </contour>
  </outline>
</glyph>
<glyph name="x" format="1">
  <advance width="1126"/>
  <unicode hex="0078"/>
  <outline>
    <contour>
      <point x="54" y="0" type="line"/>
      <point x="335" y="0" type="line"/>
      <point x="571" y="343" type="line"/>
      <point x="812" y="0" type="line"/>
      <point x="1072" y="0" type="line"/>
      <point x="702" y="536" type="line"/>
      <point x="1070" y="1074" type="line"/>
      <point x="804" y="1074" type="line"/>
      <point x="566" y="734" type="line"/>
      <point x="331" y="1074" type="line"/>
      <point x="55" y="1074" type="line"/>
      <point x="432" y="540" type="line"/>
    </contour>
  </outline>
</glyph>
<glyph name="z" format="1">
  <advance width="974"/>
  <unicode hex="007A"/>
  <outline>
    <contour>
      <point x="122" y="0" type="line"/>
      <point x="874" y="0" type="line"/>
      <point x="874" y="178" type="line"/>
      <point x="414" y="178" type="line"/>
      <point x="859" y="910" type="line"/>
      <point x="859" y="1074" type="line"/>
      <point x="141" y="1074" type="line"/>
      <point x="141" y="896" type="line"/>
      <point x="555" y="896" type="line"/>
      <point x="122" y="167" type="line"/>
    </contour>
  </outline>
</glyph>
<glyph name="cent" format="1">
  <advance width="962"/>
  <unicode hex="00A2"/>
  <outline>
    <contour>
      <point x="427" y="-214" type="line"/>
      <point x="562" y="-214" type="line"/>
      <point x="562" y="13" type="line"/>
      <point x="765" y="30"/>
      <point x="882" y="149"/>
      <point x="882" y="324" type="curve" smooth="yes"/>
      <point x="882" y="413" type="line"/>
      <point x="635" y="413" type="line"/>
      <point x="636" y="368"/>
      <point x="637" y="338"/>
      <point x="637" y="330" type="curve" smooth="yes"/>
      <point x="637" y="243"/>
      <point x="591" y="208"/>
      <point x="489" y="208" type="curve" smooth="yes"/>
      <point x="384" y="208"/>
      <point x="347" y="260"/>
      <point x="347" y="330" type="curve" smooth="yes"/>
      <point x="347" y="761" type="line" smooth="yes"/>
      <point x="347" y="827"/>
      <point x="390" y="875"/>
      <point x="489" y="875" type="curve" smooth="yes"/>
      <point x="599" y="875"/>
      <point x="637" y="828"/>
      <point x="636" y="737" type="curve" smooth="yes"/>
      <point x="635" y="665" type="line"/>
      <point x="882" y="665" type="line"/>
      <point x="882" y="720" type="line" smooth="yes"/>
      <point x="882" y="926"/>
      <point x="780" y="1055"/>
      <point x="562" y="1073" type="curve"/>
      <point x="562" y="1291" type="line"/>
      <point x="427" y="1291" type="line"/>
      <point x="427" y="1073" type="line"/>
      <point x="203" y="1057"/>
      <point x="96" y="922"/>
      <point x="96" y="719" type="curve" smooth="yes"/>
      <point x="96" y="327" type="line" smooth="yes"/>
      <point x="96" y="150"/>
      <point x="222" y="28"/>
      <point x="427" y="13" type="curve"/>
    </contour>
  </outline>
</glyph>
<glyph name="sterling" format="1">
  <advance width="1285"/>
  <unicode hex="00A3"/>
  <outline>
    <contour>
      <point x="206" y="0" type="line"/>
      <point x="1104" y="0" type="line"/>
      <point x="1104" y="226" type="line"/>
      <point x="516" y="226" type="line"/>
      <point x="550" y="621" type="line"/>
      <point x="1073" y="621" type="line"/>
      <point x="1073" y="812" type="line"/>
      <point x="567" y="812" type="line"/>
      <point x="586" y="1037" type="line"/>
      <point x="595" y="1164"/>
      <point x="632" y="1274"/>
      <point x="818" y="1274" type="curve" smooth="yes"/>
      <point x="921" y="1274"/>
      <point x="976" y="1242"/>
      <point x="1089" y="1196" type="curve"/>
      <point x="1160" y="1415" type="line"/>
      <point x="1030" y="1477"/>
      <point x="944" y="1515"/>
      <point x="801" y="1515" type="curve" smooth="yes"/>
      <point x="470" y="1515"/>
      <point x="307" y="1344"/>
      <point x="291" y="1061" type="curve"/>
      <point x="271" y="812" type="line"/>
      <point x="134" y="812" type="line"/>
      <point x="134" y="621" type="line"/>
      <point x="256" y="621" type="line"/>
    </contour>
  </outline>
</glyph>
<glyph name="brokenbar" format="1">
  <advance width="459"/>
  <unicode hex="00A6"/>
  <outline>
    <contour>
      <point x="134" y="-59" type="line"/>
      <point x="323" y="-59" type="line"/>
      <point x="323" y="530" type="line"/>
      <point x="134" y="530" type="line"/>
    </contour>
    <contour>
      <point x="134" y="776" type="line"/>
      <point x="323" y="776" type="line"/>
      <point x="323" y="1374" type="line"/>
      <point x="134" y="1374" type="line"/>
    </contour>
  </outline>
</glyph>
<glyph name="section" format="1">
  <advance width="1037"/>
  <unicode hex="00A7"/>
  <outline>
    <contour>
      <point x="555" y="-23" type="curve" smooth="yes"/>
      <point x="812" y="-23"/>
      <point x="940" y="122"/>
      <point x="940" y="303" type="curve" smooth="yes"/>
      <point x="940" y="402"/>
      <point x="916" y="463"/>
      <point x="861" y="511" type="curve"/>
      <point x="914" y="560"/>
      <point x="940" y="619"/>
      <point x="940" y="702" type="curve" smooth="yes"/>
      <point x="940" y="870"/>
      <point x="880" y="934"/>
      <point x="705" y="1008" type="curve"/>
      <point x="486" y="1103" type="line"/>
      <point x="432" y="1125"/>
      <point x="402" y="1150"/>
      <point x="403" y="1205" type="curve" smooth="yes"/>
      <point x="404" y="1272"/>
      <point x="438" y="1306"/>
      <point x="553" y="1306" type="curve" smooth="yes"/>
      <point x="655" y="1306"/>
      <point x="780" y="1257"/>
      <point x="839" y="1217" type="curve"/>
      <point x="923" y="1376" type="line"/>
      <point x="853" y="1430"/>
      <point x="712" y="1496"/>
      <point x="528" y="1496" type="curve" smooth="yes"/>
      <point x="302" y="1496"/>
      <point x="144" y="1400"/>
      <point x="142" y="1195" type="curve"/>
      <point x="140" y="1102"/>
      <point x="166" y="1039"/>
      <point x="229" y="988" type="curve"/>
      <point x="174" y="947"/>
      <point x="143" y="886"/>
      <point x="142" y="796" type="curve" smooth="yes"/>
      <point x="139" y="652"/>
      <point x="195" y="574"/>
      <point x="359" y="507" type="curve"/>
      <point x="586" y="410" type="line"/>
      <point x="665" y="378"/>
      <point x="688" y="338"/>
      <point x="688" y="285" type="curve" smooth="yes"/>
      <point x="688" y="225"/>
      <point x="647" y="166"/>
      <point x="545" y="166" type="curve" smooth="yes"/>
      <point x="439" y="166"/>
      <point x="319" y="207"/>
      <point x="217" y="280" type="curve"/>
      <point x="123" y="111" type="line"/>
      <point x="221" y="31"/>
      <point x="373" y="-23"/>
    </contour>
    <contour>
      <point x="680" y="611" type="curve"/>
      <point x="479" y="697" type="line"/>
      <point x="414" y="726"/>
      <point x="388" y="754"/>
      <point x="389" y="809" type="curve" smooth="yes"/>
      <point x="389" y="843"/>
      <point x="403" y="877"/>
      <point x="419" y="888" type="curve"/>
      <point x="593" y="816" type="line"/>
      <point x="683" y="777"/>
      <point x="702" y="737"/>
      <point x="702" y="684" type="curve" smooth="yes"/>
      <point x="702" y="660"/>
      <point x="695" y="633"/>
    </contour>
  </outline>
</glyph>
<glyph name="ordfeminine" format="1">
  <advance width="1024"/>
  <unicode hex="00AA"/>
  <outline>
    <contour>
      <point x="410" y="517" type="line"/>
      <point x="537" y="517"/>
      <point x="630" y="591"/>
      <point x="677" y="656" type="curve"/>
      <point x="708" y="582"/>
      <point x="741" y="531"/>
      <point x="861" y="531" type="curve" smooth="yes"/>
      <point x="946" y="531" type="line"/>
      <point x="964" y="701" type="line"/>
      <point x="894" y="701"/>
      <point x="878" y="728"/>
      <point x="878" y="812" type="curve" smooth="yes"/>
      <point x="878" y="1166" type="line" smooth="yes"/>
      <point x="878" y="1356"/>
      <point x="789" y="1478"/>
      <point x="530" y="1478" type="curve" smooth="yes"/>
      <point x="293" y="1478"/>
      <point x="185" y="1363"/>
      <point x="185" y="1185" type="curve" smooth="yes"/>
      <point x="185" y="1158" type="line"/>
      <point x="390" y="1158" type="line"/>
      <point x="390" y="1194" type="line" smooth="yes"/>
      <point x="390" y="1265"/>
      <point x="415" y="1316"/>
      <point x="525" y="1316" type="curve" smooth="yes"/>
      <point x="623" y="1316"/>
      <point x="658" y="1278"/>
      <point x="658" y="1204" type="curve" smooth="yes"/>
      <point x="657" y="1088"/>
      <point x="589" y="1087"/>
      <point x="433" y="1037" type="curve" smooth="yes"/>
      <point x="188" y="959"/>
      <point x="154" y="897"/>
      <point x="158" y="767" type="curve" smooth="yes"/>
      <point x="162" y="615"/>
      <point x="260" y="518"/>
      <point x="408" y="518" type="curve"/>
    </contour>
    <contour>
      <point x="482" y="684" type="line" smooth="yes"/>
      <point x="409" y="684"/>
      <point x="370" y="724"/>
      <point x="368" y="796" type="curve" smooth="yes"/>
      <point x="366" y="848"/>
      <point x="394" y="896"/>
      <point x="487" y="924" type="curve" smooth="yes"/>
      <point x="560" y="946"/>
      <point x="630" y="976"/>
      <point x="657" y="1002" type="curve"/>
      <point x="657" y="770" type="line"/>
      <point x="617" y="706"/>
      <point x="536" y="684"/>
      <point x="483" y="684" type="curve" smooth="yes"/>
    </contour>
  </outline>
</glyph>
<glyph name="uni00AD" format="1">
  <advance width="775"/>
  <unicode hex="00AD"/>
  <outline>
    <contour>
      <point x="131" y="400" type="line"/>
      <point x="656" y="400" type="line"/>
      <point x="656" y="591" type="line"/>
      <point x="131" y="591" type="line"/>
    </contour>
  </outline>
</glyph>
<glyph name="acute" format="1">
  <advance width="554"/>
  <unicode hex="00B4"/>
  <outline>
    <contour>
      <point x="106" y="1157" type="line"/>
      <point x="255" y="1157" type="line"/>
      <point x="488" y="1514" type="line"/>
      <point x="220" y="1514" type="line"/>
    </contour>
  </outline>
</glyph>
<glyph name="periodcentered" format="1">
  <advance width="425"/>
  <unicode hex="00B7"/>
  <outline>
    <contour>
      <point x="90" y="780" type="line"/>
      <point x="338" y="780" type="line"/>
      <point x="338" y="1025" type="line"/>
      <point x="90" y="1025" type="line"/>
    </contour>
  </outline>
</glyph>
<glyph name="questiondown" format="1">
  <advance width="1243"/>
  <unicode hex="00BF"/>
  <outline>
    <contour>
      <point x="604" y="-182" type="curve" smooth="yes"/>
      <point x="1037" y="-182"/>
      <point x="1123" y="-40"/>
      <point x="1123" y="263" type="curve" smooth="yes"/>
      <point x="1123" y="357" type="line"/>
      <point x="819" y="357" type="line"/>
      <point x="819" y="272" type="line" smooth="yes"/>
      <point x="819" y="131"/>
      <point x="806" y="40"/>
      <point x="604" y="40" type="curve" smooth="yes"/>
      <point x="418" y="40"/>
      <point x="397" y="113"/>
      <point x="397" y="223" type="curve" smooth="yes"/>
      <point x="397" y="343"/>
      <point x="442" y="413"/>
      <point x="530" y="539" type="curve"/>
      <point x="778" y="888" type="line"/>
      <point x="549" y="888" type="line"/>
      <point x="367" y="697" type="line"/>
      <point x="205" y="525"/>
      <point x="79" y="414"/>
      <point x="79" y="209" type="curve" smooth="yes"/>
      <point x="79" y="-13"/>
      <point x="156" y="-182"/>
    </contour>
    <contour>
      <point x="545" y="1074" type="line"/>
      <point x="794" y="1074" type="line"/>
      <point x="794" y="1319" type="line"/>
      <point x="545" y="1319" type="line"/>
    </contour>
  </outline>
</glyph>
<glyph name="Eth" format="1">
  <advance width="1568"/>
  <unicode hex="00D0"/>
  <outline>
    <contour>
      <point x="90.0" y="848.0" type="line"/>
      <point x="90.0" y="698.0" type="line"/>
      <point x="815.0" y="698.0" type="line"/>
      <point x="815.0" y="848.0" type="line"/>
    </contour>
    <component base="D"/>
  </outline>
</glyph>
<glyph name="ae" format="1">
  <advance width="1792"/>
  <unicode hex="00E6"/>
  <outline>
    <contour>
      <point x="445" y="-23" type="curve" smooth="yes"/>
      <point x="646" y="-23"/>
      <point x="759" y="31"/>
      <point x="872" y="130" type="curve"/>
      <point x="926" y="29"/>
      <point x="1042" y="-23"/>
      <point x="1211" y="-23" type="curve" smooth="yes"/>
      <point x="1501" y="-23"/>
      <point x="1642" y="41"/>
      <point x="1648" y="353" type="curve"/>
      <point x="1395" y="353" type="line"/>
      <point x="1391" y="184"/>
      <point x="1338" y="166"/>
      <point x="1215" y="166" type="curve" smooth="yes"/>
      <point x="1102" y="166"/>
      <point x="1037" y="203"/>
      <point x="1037" y="321" type="curve" smooth="yes"/>
      <point x="1037" y="514" type="line"/>
      <point x="1650" y="514" type="line"/>
      <point x="1650" y="745" type="line" smooth="yes"/>
      <point x="1650" y="961"/>
      <point x="1538" y="1097"/>
      <point x="1212" y="1097" type="curve" smooth="yes"/>
      <point x="1081" y="1097"/>
      <point x="975" y="1055"/>
      <point x="903" y="967" type="curve"/>
      <point x="856" y="1056"/>
      <point x="732" y="1097"/>
      <point x="598" y="1097" type="curve" smooth="yes"/>
      <point x="303" y="1097"/>
      <point x="169" y="953"/>
      <point x="169" y="745" type="curve" smooth="yes"/>
      <point x="169" y="719" type="line"/>
      <point x="425" y="719" type="line"/>
      <point x="425" y="755" type="line" smooth="yes"/>
      <point x="425" y="838"/>
      <point x="455" y="908"/>
      <point x="592" y="908" type="curve" smooth="yes"/>
      <point x="720" y="908"/>
      <point x="764" y="852"/>
      <point x="764" y="770" type="curve" smooth="yes"/>
      <point x="764" y="631"/>
      <point x="682" y="640"/>
      <point x="473" y="586" type="curve" smooth="yes"/>
      <point x="166" y="508"/>
      <point x="132" y="420"/>
      <point x="137" y="268" type="curve" smooth="yes"/>
      <point x="142" y="90"/>
      <point x="261" y="-23"/>
    </contour>
    <contour>
      <point x="540" y="157" type="curve" smooth="yes"/>
      <point x="450" y="157"/>
      <point x="400" y="206"/>
      <point x="398" y="290" type="curve" smooth="yes"/>
      <point x="397" y="351"/>
      <point x="421" y="418"/>
      <point x="552" y="447" type="curve"/>
      <point x="651" y="470"/>
      <point x="739" y="499"/>
      <point x="764" y="520" type="curve"/>
      <point x="764" y="259" type="line"/>
      <point x="714" y="183"/>
      <point x="606" y="157"/>
    </contour>
    <contour>
      <point x="1037" y="655" type="line"/>
      <point x="1037" y="760" type="line" smooth="yes"/>
      <point x="1037" y="874"/>
      <point x="1109" y="907"/>
      <point x="1218" y="907" type="curve" smooth="yes"/>
      <point x="1327" y="907"/>
      <point x="1396" y="884"/>
      <point x="1396" y="765" type="curve" smooth="yes"/>
      <point x="1396" y="655" type="line"/>
    </contour>
  </outline>
</glyph>
<glyph name="eth" format="1">
  <advance width="1374"/>
  <unicode hex="00F0"/>
  <outline>
    <contour>
      <point x="695" y="-23" type="curve" smooth="yes"/>
      <point x="1078" y="-23"/>
      <point x="1205" y="135"/>
      <point x="1205" y="400" type="curve" smooth="yes"/>
      <point x="1205" y="536" type="line" smooth="yes"/>
      <point x="1205" y="1009"/>
      <point x="997" y="1250"/>
      <point x="770" y="1377" type="curve"/>
      <point x="872" y="1500" type="line"/>
      <point x="768" y="1583" type="line"/>
      <point x="647" y="1436" type="line"/>
      <point x="540" y="1486"/>
      <point x="436" y="1508"/>
      <point x="362" y="1520" type="curve"/>
      <point x="284" y="1333" type="line"/>
      <point x="351" y="1317"/>
      <point x="432" y="1297"/>
      <point x="512" y="1262" type="curve"/>
      <point x="404" y="1148" type="line"/>
      <point x="507" y="1065" type="line"/>
      <point x="636" y="1206" type="line"/>
      <point x="743" y="1146"/>
      <point x="833" y="1058"/>
      <point x="876" y="921" type="curve"/>
      <point x="849" y="944"/>
      <point x="705" y="975"/>
      <point x="639" y="975" type="curve" smooth="yes"/>
      <point x="376" y="975"/>
      <point x="169" y="846"/>
      <point x="169" y="618" type="curve" smooth="yes"/>
      <point x="169" y="342" type="line" smooth="yes"/>
      <point x="169" y="118"/>
      <point x="344" y="-23"/>
    </contour>
    <contour>
      <point x="695" y="190" type="curve" smooth="yes"/>
      <point x="548" y="190"/>
      <point x="462" y="235"/>
      <point x="462" y="377" type="curve" smooth="yes"/>
      <point x="462" y="575" type="line" smooth="yes"/>
      <point x="462" y="706"/>
      <point x="549" y="756"/>
      <point x="695" y="756" type="curve" smooth="yes"/>
      <point x="755" y="756"/>
      <point x="856" y="736"/>
      <point x="899" y="706" type="curve"/>
      <point x="914" y="624"/>
      <point x="922" y="547"/>
      <point x="922" y="516" type="curve" smooth="yes"/>
      <point x="922" y="428" type="line" smooth="yes"/>
      <point x="922" y="298"/>
      <point x="928" y="190"/>
    </contour>
  </outline>
</glyph>
<glyph name="divide" format="1">
  <advance width="712"/>
  <unicode hex="00F7"/>
  <outline>
    <contour>
      <point x="241" y="163" type="line"/>
      <point x="469" y="163" type="line"/>
      <point x="469" y="392" type="line"/>
      <point x="241" y="392" type="line"/>
    </contour>
    <contour>
      <point x="34" y="479" type="line"/>
      <point x="674" y="479" type="line"/>
      <point x="674" y="649" type="line"/>
      <point x="34" y="649" type="line"/>
    </contour>
    <contour>
      <point x="241" y="752" type="line"/>
      <point x="469" y="752" type="line"/>
      <point x="469" y="981" type="line"/>
      <point x="241" y="981" type="line"/>
    </contour>
  </outline>
</glyph>
<glyph name="dotlessi" format="1">
  <advance width="488"/>
  <unicode hex="0131"/>
  <outline>
    <contour>
      <point x="134" y="0" type="line"/>
      <point x="385" y="0" type="line"/>
      <point x="385" y="1074" type="line"/>
      <point x="134" y="1074" type="line"/>
    </contour>
  </outline>
</glyph>
<glyph name="OE" format="1">
  <advance width="1518"/>
  <unicode hex="0152"/>
  <outline>
    <contour>
      <point x="662" y="0" type="curve" smooth="yes"/>
      <point x="1452" y="0" type="line"/>
      <point x="1452" y="190" type="line"/>
      <point x="1101" y="190" type="line"/>
      <point x="1101" y="665" type="line"/>
      <point x="1367" y="665" type="line"/>
      <point x="1367" y="858" type="line"/>
      <point x="1101" y="858" type="line"/>
      <point x="1101" y="1287" type="line"/>
      <point x="1450" y="1287" type="line"/>
      <point x="1450" y="1476" type="line"/>
      <point x="662" y="1476" type="line"/>
      <point x="209" y="1475"/>
      <point x="105" y="1247"/>
      <point x="105" y="958" type="curve" smooth="yes"/>
      <point x="105" y="506" type="line" smooth="yes"/>
      <point x="105" y="211"/>
      <point x="211" y="0"/>
    </contour>
    <contour>
      <point x="659" y="191" type="line" smooth="yes"/>
      <point x="439" y="191"/>
      <point x="375" y="302"/>
      <point x="375" y="444" type="curve" smooth="yes"/>
      <point x="375" y="1022" type="line" smooth="yes"/>
      <point x="375" y="1165"/>
      <point x="440" y="1279"/>
      <point x="658" y="1279" type="curve" smooth="yes"/>
      <point x="831" y="1279" type="line"/>
      <point x="831" y="191" type="line"/>
    </contour>
  </outline>
</glyph>
<glyph name="Tbar" format="1">
  <advance width="1210"/>
  <unicode hex="0166"/>
  <outline>
    <contour>
      <point x="959" y="688" type="line"/>
      <point x="959" y="817" type="line"/>
      <point x="243" y="817" type="line"/>
      <point x="243" y="688" type="line"/>
    </contour>
    <component base="T"/>
  </outline>
</glyph>
<glyph name="circumflex" format="1">
  <advance width="512"/>
  <unicode hex="02C6"/>
  <outline>
    <contour>
      <point x="-30" y="1216" type="line"/>
      <point x="150" y="1216" type="line"/>
      <point x="286" y="1391" type="line"/>
      <point x="414" y="1216" type="line"/>
      <point x="589" y="1216" type="line"/>
      <point x="367" y="1516" type="line"/>
      <point x="204" y="1516" type="line"/>
    </contour>
  </outline>
</glyph>
<glyph name="dotaccent" format="1">
  <advance width="489"/>
  <unicode hex="02D9"/>
  <outline>
    <contour>
      <point x="126" y="1251" type="line"/>
      <point x="384" y="1251" type="line"/>
      <point x="384" y="1505" type="line"/>
      <point x="126" y="1505" type="line"/>
    </contour>
  </outline>
</glyph>
<glyph name="hungarumlaut" format="1">
  <advance width="1024"/>
  <unicode hex="02DD"/>
  <outline>
    <contour>
      <point x="96" y="1065" type="line"/>
      <point x="251" y="1065" type="line"/>
      <point x="493" y="1496" type="line"/>
      <point x="207" y="1496" type="line"/>
    </contour>
    <contour>
      <point x="500" y="1065" type="line"/>
      <point x="662" y="1065" type="line"/>
      <point x="928" y="1496" type="line"/>
      <point x="639" y="1496" type="line"/>
    </contour>
  </outline>
</glyph>
<glyph name="uni030F" format="1">
  <advance width="1024"/>
  <unicode hex="030F"/>
  <outline>
    <contour>
      <point x="362" y="1065" type="line"/>
      <point x="524" y="1065" type="line"/>
      <point x="385" y="1496" type="line"/>
      <point x="96" y="1496" type="line"/>
    </contour>
    <contour>
      <point x="773" y="1065" type="line"/>
      <point x="928" y="1065" type="line"/>
      <point x="817" y="1496" type="line"/>
      <point x="531" y="1496" type="line"/>
    </contour>
  </outline>
</glyph>
<glyph name="uni1E1F" format="1">
  <advance width="792"/>
  <unicode hex="1E1F"/>
  <outline>
    <contour>
      <point x="254" y="0" type="line"/>
      <point x="527" y="0" type="line"/>
      <point x="527" y="901" type="line"/>
      <point x="741" y="901" type="line"/>
      <point x="741" y="1074" type="line"/>
      <point x="527" y="1074" type="line"/>
      <point x="527" y="1200" type="line" smooth="yes"/>
      <point x="527" y="1272"/>
      <point x="548" y="1327"/>
      <point x="666" y="1327" type="curve" smooth="yes"/>
      <point x="756" y="1327" type="line"/>
      <point x="743" y="1516" type="line"/>
      <point x="617" y="1516" type="line" smooth="yes"/>
      <point x="362" y="1516"/>
      <point x="254" y="1380"/>
      <point x="254" y="1125" type="curve" smooth="yes"/>
      <point x="254" y="1074" type="line"/>
      <point x="112" y="1074" type="line"/>
      <point x="112" y="901" type="line"/>
      <point x="254" y="901" type="line"/>
    </contour>
    <contour>
      <point x="309" y="1678" type="line"/>
      <point x="557" y="1678" type="line"/>
      <point x="557" y="1925" type="line"/>
      <point x="309" y="1925" type="line"/>
    </contour>
  </outline>
</glyph>
<glyph name="uni1E57" format="1">
  <advance width="1252"/>
  <unicode hex="1E57"/>
  <outline>
    <contour>
      <point x="178" y="-410" type="line"/>
      <point x="452" y="-410" type="line"/>
      <point x="452" y="17" type="line"/>
      <point x="504" y="-6"/>
      <point x="572" y="-23"/>
      <point x="657" y="-23" type="curve" smooth="yes"/>
      <point x="960" y="-23"/>
      <point x="1098" y="142"/>
      <point x="1098" y="326" type="curve" smooth="yes"/>
      <point x="1098" y="751" type="line" smooth="yes"/>
      <point x="1098" y="957"/>
      <point x="949" y="1097"/>
      <point x="689" y="1097" type="curve" smooth="yes"/>
      <point x="572" y="1097"/>
      <point x="468" y="1056"/>
      <point x="397" y="1004" type="curve"/>
      <point x="370" y="1074" type="line"/>
      <point x="178" y="1074" type="line"/>
    </contour>
    <contour>
      <point x="634" y="166" type="curve" smooth="yes"/>
      <point x="529" y="166"/>
      <point x="467" y="205"/>
      <point x="452" y="213" type="curve"/>
      <point x="452" y="841" type="line"/>
      <point x="483" y="872"/>
      <point x="556" y="907"/>
      <point x="643" y="907" type="curve" smooth="yes"/>
      <point x="757" y="907"/>
      <point x="826" y="863"/>
      <point x="826" y="755" type="curve" smooth="yes"/>
      <point x="826" y="320" type="line" smooth="yes"/>
      <point x="826" y="211"/>
      <point x="758" y="166"/>
    </contour>
    <contour>
      <point x="517" y="1259" type="line"/>
      <point x="765" y="1259" type="line"/>
      <point x="765" y="1506" type="line"/>
      <point x="517" y="1506" type="line"/>
    </contour>
  </outline>
</glyph>
<glyph name="uni1E6A" format="1">
  <advance width="1210"/>
  <unicode hex="1E6A"/>
  <outline>
    <contour>
      <point x="457" y="0" type="line"/>
      <point x="753" y="0" type="line"/>
      <point x="753" y="1250" type="line"/>
      <point x="1154" y="1250" type="line"/>
      <point x="1154" y="1477" type="line"/>
      <point x="730" y="1477" type="line"/>
      <point x="730" y="1498" type="line"/>
      <point x="482" y="1498" type="line"/>
      <point x="482" y="1477" type="line"/>
      <point x="56" y="1477" type="line"/>
      <point x="56" y="1250" type="line"/>
      <point x="457" y="1250" type="line"/>
    </contour>
  </outline>
</glyph>
<glyph name="uni1E6B" format="1">
  <advance width="869"/>
  <unicode hex="1E6B"/>
  <outline>
    <contour>
      <point x="674" y="-12" type="curve" smooth="yes"/>
      <point x="744" y="-12" type="line"/>
      <point x="764" y="190" type="line"/>
      <point x="732" y="190" type="line" smooth="yes"/>
      <point x="552" y="190"/>
      <point x="499" y="227"/>
      <point x="499" y="360" type="curve" smooth="yes"/>
      <point x="499" y="901" type="line"/>
      <point x="754" y="901" type="line"/>
      <point x="754" y="1074" type="line"/>
      <point x="499" y="1074" type="line"/>
      <point x="499" y="1419" type="line"/>
      <point x="260" y="1419" type="line"/>
      <point x="234" y="1074" type="line"/>
      <point x="84" y="1074" type="line"/>
      <point x="84" y="901" type="line"/>
      <point x="226" y="901" type="line"/>
      <point x="226" y="341" type="line" smooth="yes"/>
      <point x="226" y="65"/>
      <point x="350" y="-12"/>
    </contour>
    <contour>
      <point x="299" y="1582" type="line"/>
      <point x="547" y="1582" type="line"/>
      <point x="547" y="1829" type="line"/>
      <point x="299" y="1829" type="line"/>
    </contour>
  </outline>
</glyph>
<glyph name="wgrave" format="1">
  <advance width="1692"/>
  <unicode hex="1E81"/>
  <outline>
    <contour>
      <point x="343" y="0" type="line"/>
      <point x="593" y="0" type="line"/>
      <point x="838" y="739" type="line"/>
      <point x="1074" y="0" type="line"/>
      <point x="1332" y="0" type="line"/>
      <point x="1616" y="1074" type="line"/>
      <point x="1363" y="1074" type="line"/>
      <point x="1178" y="313" type="line"/>
      <point x="942" y="1074" type="line"/>
      <point x="729" y="1074" type="line"/>
      <point x="500" y="322" type="line"/>
      <point x="302" y="1074" type="line"/>
      <point x="48" y="1074" type="line"/>
    </contour>
    <contour>
      <point x="770" y="1260" type="line"/>
      <point x="921" y="1260" type="line"/>
      <point x="800" y="1617" type="line"/>
      <point x="533" y="1617" type="line"/>
    </contour>
  </outline>
</glyph>
<glyph name="wacute" format="1">
  <advance width="1692"/>
  <unicode hex="1E83"/>
  <outline>
    <contour>
      <point x="343" y="0" type="line"/>
      <point x="593" y="0" type="line"/>
      <point x="838" y="739" type="line"/>
      <point x="1074" y="0" type="line"/>
      <point x="1332" y="0" type="line"/>
      <point x="1616" y="1074" type="line"/>
      <point x="1363" y="1074" type="line"/>
      <point x="1178" y="313" type="line"/>
      <point x="942" y="1074" type="line"/>
      <point x="729" y="1074" type="line"/>
      <point x="500" y="322" type="line"/>
      <point x="302" y="1074" type="line"/>
      <point x="48" y="1074" type="line"/>
    </contour>
    <contour>
      <point x="772" y="1260" type="line"/>
      <point x="921" y="1260" type="line"/>
      <point x="1154" y="1617" type="line"/>
      <point x="886" y="1617" type="line"/>
    </contour>
  </outline>
</glyph>
<glyph name="Ygrave" format="1">
  <advance width="1317"/>
  <unicode hex="1EF2"/>
  <outline>
    <contour>
      <point x="519" y="0" type="line"/>
      <point x="815" y="0" type="line"/>
      <point x="815" y="567" type="line"/>
      <point x="1312" y="1476" type="line"/>
      <point x="1012" y="1476" type="line"/>
      <point x="846.055" y="1177.49" type="line"/>
      <point x="732" y="1514" type="line"/>
      <point x="465" y="1514" type="line"/>
      <point x="702" y="1157" type="line"/>
      <point x="834.663" y="1157" type="line"/>
      <point x="669" y="859" type="line"/>
      <point x="329" y="1476" type="line"/>
      <point x="16" y="1476" type="line"/>
      <point x="519" y="567" type="line"/>
    </contour>
  </outline>
</glyph>
<glyph name="endash" format="1">
  <advance width="716"/>
  <unicode hex="2013"/>
  <outline>
    <contour>
      <point x="128" y="446" type="line"/>
      <point x="588" y="446" type="line"/>
      <point x="588" y="612" type="line"/>
      <point x="128" y="612" type="line"/>
    </contour>
  </outline>
</glyph>
<glyph name="quoteright" format="1">
  <advance width="768"/>
  <unicode hex="2019"/>
  <outline>
    <contour>
      <point x="296" y="839" type="line"/>
      <point x="358" y="895"/>
      <point x="492" y="1080"/>
      <point x="492" y="1281" type="curve" smooth="yes"/>
      <point x="492" y="1504" type="line"/>
      <point x="170" y="1504" type="line"/>
      <point x="170" y="1228" type="line"/>
      <point x="335" y="1228" type="line"/>
      <point x="335" y="1090"/>
      <point x="240" y="943"/>
      <point x="189" y="885" type="curve"/>
    </contour>
  </outline>
</glyph>
<glyph name="quotesinglbase" format="1">
  <advance width="768"/>
  <unicode hex="201A"/>
  <outline>
    <contour>
      <point x="296" y="-389" type="line"/>
      <point x="358" y="-333"/>
      <point x="492" y="-148"/>
      <point x="492" y="53" type="curve" smooth="yes"/>
      <point x="492" y="276" type="line"/>
      <point x="170" y="276" type="line"/>
      <point x="170" y="0" type="line"/>
      <point x="335" y="0" type="line"/>
      <point x="335" y="-138"/>
      <point x="240" y="-285"/>
      <point x="189" y="-343" type="curve"/>
    </contour>
  </outline>
</glyph>
<glyph name="quotedblleft" format="1">
  <advance width="1078"/>
  <unicode hex="201C"/>
  <outline>
    <contour>
      <point x="146" y="850" type="line"/>
      <point x="468" y="850" type="line"/>
      <point x="468" y="1126" type="line"/>
      <point x="303" y="1126" type="line"/>
      <point x="303" y="1264"/>
      <point x="398" y="1411"/>
      <point x="449" y="1469" type="curve"/>
      <point x="342" y="1515" type="line"/>
      <point x="280" y="1459"/>
      <point x="146" y="1274"/>
      <point x="146" y="1073" type="curve" smooth="yes"/>
    </contour>
    <contour>
      <point x="622" y="850" type="line"/>
      <point x="944" y="850" type="line"/>
      <point x="944" y="1126" type="line"/>
      <point x="779" y="1126" type="line"/>
      <point x="779" y="1264"/>
      <point x="874" y="1411"/>
      <point x="925" y="1469" type="curve"/>
      <point x="818" y="1515" type="line"/>
      <point x="756" y="1459"/>
      <point x="622" y="1274"/>
      <point x="622" y="1073" type="curve" smooth="yes"/>
    </contour>
  </outline>
</glyph>
<glyph name="quotedblright" format="1">
  <advance width="1078"/>
  <unicode hex="201D"/>
  <outline>
    <contour>
      <point x="276" y="851" type="line"/>
      <point x="338" y="907"/>
      <point x="472" y="1092"/>
      <point x="472" y="1293" type="curve" smooth="yes"/>
      <point x="472" y="1516" type="line"/>
      <point x="150" y="1516" type="line"/>
      <point x="150" y="1240" type="line"/>
      <point x="315" y="1240" type="line"/>
      <point x="315" y="1102"/>
      <point x="220" y="955"/>
      <point x="169" y="897" type="curve"/>
    </contour>
    <contour>
      <point x="752" y="851" type="line"/>
      <point x="814" y="907"/>
      <point x="948" y="1092"/>
      <point x="948" y="1293" type="curve" smooth="yes"/>
      <point x="948" y="1516" type="line"/>
      <point x="626" y="1516" type="line"/>
      <point x="626" y="1240" type="line"/>
      <point x="791" y="1240" type="line"/>
      <point x="791" y="1102"/>
      <point x="696" y="955"/>
      <point x="645" y="897" type="curve"/>
    </contour>
  </outline>
</glyph>
<glyph name="dagger" format="1">
  <advance width="730"/>
  <unicode hex="2020"/>
  <outline>
    <contour>
      <point x="262" y="0" type="line"/>
      <point x="467" y="0" type="line"/>
      <point x="467" y="827" type="line"/>
      <point x="658" y="827" type="line"/>
      <point x="658" y="1013" type="line"/>
      <point x="467" y="1013" type="line"/>
      <point x="467" y="1324" type="line"/>
      <point x="262" y="1324" type="line"/>
      <point x="262" y="1013" type="line"/>
      <point x="72" y="1013" type="line"/>
      <point x="72" y="827" type="line"/>
      <point x="262" y="827" type="line"/>
    </contour>
  </outline>
</glyph>
<glyph name="bullet" format="1">
  <advance width="1017"/>
  <unicode hex="2022"/>
  <outline>
    <contour>
      <point x="508" y="390" type="curve" smooth="yes"/>
      <point x="701" y="390"/>
      <point x="828" y="524"/>
      <point x="828" y="707" type="curve" smooth="yes"/>
      <point x="828" y="891"/>
      <point x="701" y="1025"/>
      <point x="509" y="1025" type="curve" smooth="yes"/>
      <point x="316" y="1025"/>
      <point x="190" y="891"/>
      <point x="190" y="707" type="curve" smooth="yes"/>
      <point x="190" y="523"/>
      <point x="316" y="390"/>
    </contour>
  </outline>
</glyph>
<glyph name="perthousand" format="1">
  <advance width="2886"/>
  <unicode hex="2030"/>
  <outline>
    <contour>
      <point x="508" y="788" type="curve" smooth="yes"/>
      <point x="380" y="788"/>
      <point x="367" y="888"/>
      <point x="367" y="1023" type="curve" smooth="yes"/>
      <point x="367" y="1112" type="line" smooth="yes"/>
      <point x="367" y="1242"/>
      <point x="376" y="1331"/>
      <point x="508" y="1331" type="curve" smooth="yes"/>
      <point x="640" y="1331"/>
      <point x="649" y="1242"/>
      <point x="649" y="1110" type="curve" smooth="yes"/>
      <point x="649" y="1023" type="line" smooth="yes"/>
      <point x="649" y="888"/>
      <point x="635" y="788"/>
    </contour>
    <contour>
      <point x="508" y="658" type="curve" smooth="yes"/>
      <point x="738" y="658"/>
      <point x="812" y="808"/>
      <point x="812" y="1037" type="curve" smooth="yes"/>
      <point x="812" y="1091" type="line"/>
      <point x="810" y="1324"/>
      <point x="738" y="1461"/>
      <point x="508" y="1461" type="curve" smooth="yes"/>
      <point x="277" y="1461"/>
      <point x="207" y="1323"/>
      <point x="207" y="1090" type="curve" smooth="yes"/>
      <point x="207" y="1037" type="line" smooth="yes"/>
      <point x="207" y="809"/>
      <point x="278" y="658"/>
    </contour>
    <contour>
      <point x="1625" y="111" type="curve" smooth="yes"/>
      <point x="1497" y="111"/>
      <point x="1484" y="211"/>
      <point x="1484" y="346" type="curve" smooth="yes"/>
      <point x="1484" y="435" type="line" smooth="yes"/>
      <point x="1484" y="565"/>
      <point x="1493" y="654"/>
      <point x="1625" y="654" type="curve" smooth="yes"/>
      <point x="1757" y="654"/>
      <point x="1767" y="565"/>
      <point x="1767" y="433" type="curve" smooth="yes"/>
      <point x="1767" y="346" type="line" smooth="yes"/>
      <point x="1767" y="211"/>
      <point x="1752" y="111"/>
    </contour>
    <contour>
      <point x="1625" y="-19" type="curve" smooth="yes"/>
      <point x="1855" y="-19"/>
      <point x="1930" y="131"/>
      <point x="1930" y="360" type="curve" smooth="yes"/>
      <point x="1930" y="414" type="line"/>
      <point x="1928" y="647"/>
      <point x="1855" y="784"/>
      <point x="1625" y="784" type="curve" smooth="yes"/>
      <point x="1394" y="784"/>
      <point x="1324" y="646"/>
      <point x="1324" y="413" type="curve" smooth="yes"/>
      <point x="1324" y="360" type="line" smooth="yes"/>
      <point x="1324" y="132"/>
      <point x="1395" y="-19"/>
    </contour>
    <contour>
      <point x="2379" y="111" type="curve" smooth="yes"/>
      <point x="2251" y="111"/>
      <point x="2238" y="211"/>
      <point x="2238" y="346" type="curve" smooth="yes"/>
      <point x="2238" y="435" type="line" smooth="yes"/>
      <point x="2238" y="565"/>
      <point x="2247" y="654"/>
      <point x="2379" y="654" type="curve" smooth="yes"/>
      <point x="2511" y="654"/>
      <point x="2521" y="565"/>
      <point x="2521" y="433" type="curve" smooth="yes"/>
      <point x="2521" y="346" type="line" smooth="yes"/>
      <point x="2521" y="211"/>
      <point x="2506" y="111"/>
    </contour>
    <contour>
      <point x="2379" y="-19" type="curve" smooth="yes"/>
      <point x="2609" y="-19"/>
      <point x="2684" y="131"/>
      <point x="2684" y="360" type="curve" smooth="yes"/>
      <point x="2684" y="414" type="line"/>
      <point x="2682" y="647"/>
      <point x="2609" y="784"/>
      <point x="2379" y="784" type="curve" smooth="yes"/>
      <point x="2148" y="784"/>
      <point x="2078" y="646"/>
      <point x="2078" y="413" type="curve" smooth="yes"/>
      <point x="2078" y="360" type="line" smooth="yes"/>
      <point x="2078" y="132"/>
      <point x="2149" y="-19"/>
    </contour>
    <contour>
      <point x="705" y="0" type="line"/>
      <point x="883" y="0" type="line"/>
      <point x="1421" y="1446" type="line"/>
      <point x="1248" y="1446" type="line"/>
    </contour>
  </outline>
</glyph>
<glyph name="minus" format="1">
  <advance width="792"/>
  <unicode hex="2212"/>
  <outline>
    <contour>
      <point x="122" y="439" type="line"/>
      <point x="664" y="439" type="line"/>
      <point x="664" y="619" type="line"/>
      <point x="122" y="619" type="line"/>
    </contour>
  </outline>
</glyph>
<glyph name="lessequal" format="1">
  <advance width="1250"/>
  <unicode hex="2264"/>
  <outline>
    <contour>
      <point x="891" y="31" type="line"/>
      <point x="891" y="262" type="line"/>
      <point x="328" y="556" type="line"/>
      <point x="891" y="850" type="line"/>
      <point x="891" y="1081" type="line"/>
      <point x="147" y="664" type="line"/>
      <point x="147" y="445" type="line"/>
    </contour>
    <contour>
      <point x="47" y="-208" type="line"/>
      <point x="930" y="-208" type="line"/>
      <point x="930" y="-33" type="line"/>
      <point x="47" y="-33" type="line"/>
    </contour>
  </outline>
</glyph>
<glyph name="uniFB01" format="1">
  <advance width="1201"/>
  <unicode hex="FB01"/>
  <outline>
    <contour>
      <point x="162" y="0" type="line"/>
      <point x="413" y="0" type="line"/>
      <point x="413" y="909" type="line"/>
      <point x="836" y="909" type="line"/>
      <point x="836" y="0" type="line"/>
      <point x="1086" y="0" type="line"/>
      <point x="1086" y="1074" type="line"/>
      <point x="413" y="1074" type="line"/>
      <point x="413" y="1145" type="line" smooth="yes"/>
      <point x="413" y="1218"/>
      <point x="440" y="1249"/>
      <point x="536" y="1249" type="curve" smooth="yes"/>
      <point x="556" y="1249"/>
      <point x="649" y="1246"/>
      <point x="649" y="1246" type="curve"/>
      <point x="649" y="1431" type="line"/>
      <point x="649" y="1431"/>
      <point x="495" y="1439"/>
      <point x="418" y="1439" type="curve" smooth="yes"/>
      <point x="211" y="1439"/>
      <point x="166" y="1295"/>
      <point x="162" y="1118" type="curve" smooth="yes"/>
      <point x="162" y="1074" type="line"/>
      <point x="68" y="1074" type="line"/>
      <point x="68" y="909" type="line"/>
      <point x="162" y="909" type="line"/>
    </contour>
    <contour>
      <point x="832" y="1192" type="line"/>
      <point x="1089" y="1192" type="line"/>
      <point x="1089" y="1435" type="line"/>
      <point x="832" y="1435" type="line"/>
    </contour>
  </outline>
</glyph>
<glyph name="uniFB03" format="1">
  <advance width="2176"/>
  <unicode hex="FB03"/>
  <outline>
    <contour>
      <point x="254" y="0" type="line"/>
      <point x="527" y="0" type="line"/>
      <point x="527" y="901" type="line"/>
      <point x="741" y="901" type="line"/>
      <point x="741" y="1074" type="line"/>
      <point x="527" y="1074" type="line"/>
      <point x="527" y="1200" type="line" smooth="yes"/>
      <point x="527" y="1272"/>
      <point x="548" y="1327"/>
      <point x="666" y="1327" type="curve" smooth="yes"/>
      <point x="756" y="1327" type="line"/>
      <point x="743" y="1516" type="line"/>
      <point x="617" y="1516" type="line" smooth="yes"/>
      <point x="362" y="1516"/>
      <point x="254" y="1380"/>
      <point x="254" y="1125" type="curve" smooth="yes"/>
      <point x="254" y="1074" type="line"/>
      <point x="112" y="1074" type="line"/>
      <point x="112" y="901" type="line"/>
      <point x="254" y="901" type="line"/>
    </contour>
    <contour>
      <point x="1044" y="0" type="line"/>
      <point x="1317" y="0" type="line"/>
      <point x="1317" y="901" type="line"/>
      <point x="1531" y="901" type="line"/>
      <point x="1531" y="1074" type="line"/>
      <point x="1317" y="1074" type="line"/>
      <point x="1317" y="1200" type="line" smooth="yes"/>
      <point x="1317" y="1272"/>
      <point x="1338" y="1327"/>
      <point x="1456" y="1327" type="curve" smooth="yes"/>
      <point x="1546" y="1327" type="line"/>
      <point x="1533" y="1516" type="line"/>
      <point x="1407" y="1516" type="line" smooth="yes"/>
      <point x="1152" y="1516"/>
      <point x="1044" y="1380"/>
      <point x="1044" y="1125" type="curve" smooth="yes"/>
      <point x="1044" y="1074" type="line"/>
      <point x="902" y="1074" type="line"/>
      <point x="902" y="901" type="line"/>
      <point x="1044" y="901" type="line"/>
    </contour>
    <contour>
      <point x="1760" y="0" type="line"/>
      <point x="2032" y="0" type="line"/>
      <point x="2032" y="1074" type="line"/>
      <point x="1760" y="1074" type="line"/>
    </contour>
    <contour>
      <point x="1760" y="1227" type="line"/>
      <point x="2032" y="1227" type="line"/>
      <point x="2032" y="1468" type="line"/>
      <point x="1760" y="1468" type="line"/>
    </contour>
  </outline>
</glyph>
<glyph name=".notdef" format="1">
  <advance width="1024"/>
  <outline>
    <contour>
      <point x="204" y="-593" type="line"/>
      <point x="204" y="1414" type="line"/>
      <point x="820" y="1414" type="line"/>
      <point x="820" y="-593" type="line"/>
    </contour>
    <contour>
      <point x="102" y="-695" type="line"/>
      <point x="922" y="-695" type="line"/>
      <point x="922" y="1516" type="line"/>
      <point x="102" y="1516" type="line"/>
    </contour>
  </outline>
</glyph>
